<svg width="16" height="14" viewBox="0 0 16 14" fill="none" xmlns="http://www.w3.org/2000/svg">
<path d="M14.4746 8.70447C13.8658 7.9936 13.5892 7.37757 13.5892 6.33098V5.97513C13.5892 4.6113 13.2753 3.73257 12.5929 2.85385C11.541 1.48918 9.77031 0.666687 8.03685 0.666687H7.96313C6.26612 0.666687 4.55088 1.45141 3.48082 2.76069C2.7611 3.65704 2.41076 4.57353 2.41076 5.97513V6.33098C2.41076 7.37757 2.15236 7.9936 1.5254 8.70447C1.06408 9.22818 0.916656 9.90128 0.916656 10.6298C0.916656 11.3591 1.15601 12.0498 1.63638 12.6113C2.26334 13.2844 3.1487 13.7141 4.05312 13.7888C5.36253 13.9382 6.67194 13.9944 8.0004 13.9944C9.32804 13.9944 10.6375 13.9004 11.9477 13.7888C12.8513 13.7141 13.7366 13.2844 14.3636 12.6113C14.8431 12.0498 15.0833 11.3591 15.0833 10.6298C15.0833 9.90128 14.9359 9.22818 14.4746 8.70447Z" fill="#ADB3CC"/>
</svg>
